
<svg width="50px" height="40px" viewBox="0 0 50 40" version="1.1" xmlns="http://www.w3.org/2000/svg" xmlns:xlink="http://www.w3.org/1999/xlink">
    <g id="Page-1" stroke="none" stroke-width="1" fill="none" fillRule="evenodd">
        <g id="Onboarding-Flow-7" transform="translate(-1326.000000, -460.000000)"  fillRule="nonzero">
            <g id="Group" transform="translate(1245.000000, 432.000000)">
                <g id="Group-8" transform="translate(81.000000, 28.000000)">
                    <g id="Group-7" transform="translate(0.000000, 14.000000)">
                        <path d="M13.0829984,14.2043983 C17.0044835,14.2043983 20.1851976,11.0187574 20.1851976,7.0913033 C20.1851976,3.16384925 17.0044364,0 13.0829984,0 C9.16156044,0 5.98079928,3.18564093 5.98079928,7.0913033 C5.98079928,10.9969657 9.16151334,14.2043983 13.0829984,14.2043983 Z M13.0829984,1.85465073 C15.9587196,1.85465073 18.3116295,4.21112316 18.3116295,7.0913033 C18.3116295,9.97148344 15.9587196,12.3279087 13.0829984,12.3279087 C10.2072772,12.3279087 7.85436735,9.97143627 7.85436735,7.09125613 C7.85436735,4.211076 10.2072301,1.85465073 13.0829984,1.85465073 Z" id="Shape"></path>
                        <path d="M0.950141726,25.4183969 L25.963455,25.4183969 C26.4937689,25.4183969 26.9135967,25.0098698 26.9135967,24.4938307 C26.9135967,19.655929 22.8699414,15.6995981 17.8760967,15.6995981 L9.03750009,15.6995981 C4.06577161,15.6995981 0,19.634408 0,24.4938307 C0,25.0098698 0.419827843,25.4183969 0.950141726,25.4183969 Z M9.03750009,17.5487305 L17.8760967,17.5487305 C21.4999241,17.5487305 24.4829516,20.1719682 24.9470121,23.569218 L1.96658463,23.569218 C2.43059734,20.1934892 5.41367264,17.5487305 9.03750009,17.5487305 Z" id="Shape"></path>
                    </g>
                    <g id="Group-7-Copy" transform="translate(23.000000, 0.000000)">
                        <path d="M13.0829984,14.2043983 C17.0044835,14.2043983 20.1851976,11.0187574 20.1851976,7.0913033 C20.1851976,3.16384925 17.0044364,0 13.0829984,0 C9.16156044,0 5.98079928,3.18564093 5.98079928,7.0913033 C5.98079928,10.9969657 9.16151334,14.2043983 13.0829984,14.2043983 Z M13.0829984,1.85465073 C15.9587196,1.85465073 18.3116295,4.21112316 18.3116295,7.0913033 C18.3116295,9.97148344 15.9587196,12.3279087 13.0829984,12.3279087 C10.2072772,12.3279087 7.85436735,9.97143627 7.85436735,7.09125613 C7.85436735,4.211076 10.2072301,1.85465073 13.0829984,1.85465073 Z" id="Shape"></path>
                        <path d="M0.950141726,25.4183969 L25.963455,25.4183969 C26.4937689,25.4183969 26.9135967,25.0098698 26.9135967,24.4938307 C26.9135967,19.655929 22.8699414,15.6995981 17.8760967,15.6995981 L9.03750009,15.6995981 C4.06577161,15.6995981 0,19.634408 0,24.4938307 C0,25.0098698 0.419827843,25.4183969 0.950141726,25.4183969 Z M9.03750009,17.5487305 L17.8760967,17.5487305 C21.4999241,17.5487305 24.4829516,20.1719682 24.9470121,23.569218 L1.96658463,23.569218 C2.43059734,20.1934892 5.41367264,17.5487305 9.03750009,17.5487305 Z" id="Shape"></path>
                    </g>
                </g>
            </g>
        </g>
    </g>
</svg>
