<?xml version="1.0" encoding="UTF-8"?>
<svg width="20px" height="14px" viewBox="0 0 20 14" version="1.1" xmlns="http://www.w3.org/2000/svg" xmlns:xlink="http://www.w3.org/1999/xlink">
    <!-- Generator: sketchtool 59.1 (101010) - https://sketch.com -->
    <title>3BADE51A-B83D-4A0A-A0B7-25FF130B4037@1,5x</title>
    <desc>Created with sketchtool.</desc>
    <g id="Styles" stroke="none" stroke-width="1" fill="none" fill-rule="evenodd">
        <g transform="translate(-125.000000, -810.000000)" fill="#495570" id="Icon-/-Show">
            <g transform="translate(125.000000, 807.000000)">
                <path d="M10.0004512,3.33303255 C13.2733974,3.33303255 16.6065803,5.55535503 20,10 C16.6065803,14.444645 13.2733974,16.6669675 10.0004512,16.6669675 C6.727505,16.6669675 3.39402127,14.444645 -1.42108547e-14,10 C3.39402127,5.55535503 6.727505,3.33303255 10.0004512,3.33303255 Z M10.0004512,5.33303255 C7.73831866,5.33303255 5.245093,6.83342488 2.56399146,10 C5.245093,13.1665751 7.73831866,14.6669675 10.0004512,14.6669675 C12.1871539,14.6669675 14.589589,13.2649482 17.1687457,10.3111111 L17.4361838,10 L17.1687457,9.68888889 C14.589589,6.73505181 12.1871539,5.33303255 10.0004512,5.33303255 Z M10,7 C11.6568542,7 13,8.34314575 13,10 C13,11.6568542 11.6568542,13 10,13 C8.34314575,13 7,11.6568542 7,10 C7,8.34314575 8.34314575,7 10,7 Z" id="Combined-Shape"></path>
            </g>
        </g>
    </g>
</svg>