<?xml version="1.0" encoding="UTF-8"?>
<svg width="13px" height="13px" viewBox="0 0 13 13" version="1.1" xmlns="http://www.w3.org/2000/svg" xmlns:xlink="http://www.w3.org/1999/xlink">
    <!-- Generator: sketchtool 59.1 (101010) - https://sketch.com -->
    <title>20C9E5BD-C8FD-44F9-8B7D-F456DB4541AB@1,5x</title>
    <desc>Created with sketchtool.</desc>
    <g id="Web" stroke="none" stroke-width="1" fill="none" fill-rule="evenodd">
        <g id="01--Settings-menu" transform="translate(-61.000000, -303.000000)" fill="#878E9F">
            <g id="Group-3" transform="translate(50.000000, 209.000000)">
                <g id="Icon/16/delete" transform="translate(9.000000, 92.000000)">
                    <path d="M6,12 L7,12 L7,8 L6,8 L6,12 Z M10,12 L11,12 L11,8 L10,8 L10,12 Z M8,12 L9,12 L9,8 L8,8 L8,12 Z M5,14 L12,14 L12,6 L5,6 L5,14 Z M6,5 L11,5 L11,3 L6,3 L6,5 Z M12,5 L12,2 L5,2 L5,5 L2,5 L2,6 L4,6 L4,15 L13,15 L13,6 L15,6 L15,5 L12,5 Z" id="delete-[#1487]"></path>
                </g>
            </g>
        </g>
    </g>
</svg>