<?xml version="1.0" encoding="UTF-8"?>
<svg width="20px" height="20px" viewBox="0 0 20 20" version="1.1" xmlns="http://www.w3.org/2000/svg" xmlns:xlink="http://www.w3.org/1999/xlink">
    <!-- Generator: sketchtool 59.1 (101010) - https://sketch.com -->
    <title>B61D270A-031A-4B4E-9BDB-A036ED081A4F@1,5x</title>
    <desc>Created with sketchtool.</desc>
    <g id="Web" stroke="none" stroke-width="1" fill="none" fill-rule="evenodd">
        <g id="02" transform="translate(-156.000000, -990.000000)" fill="#9398A2" fill-rule="nonzero">
            <g id="Group-8" transform="translate(0.000000, 975.000000)">
                <g id="Icon/24/Add" transform="translate(154.000000, 13.000000)">
                    <path d="M12,2 C17.5228475,2 22,6.4771525 22,12 C22,17.5228475 17.5228475,22 12,22 C6.4771525,22 2,17.5228475 2,12 C2,6.4771525 6.4771525,2 12,2 Z M12,2.95238095 C7.00313798,2.95238095 2.95238095,7.00313798 2.95238095,12 C2.95238095,16.996862 7.00313798,21.047619 12,21.047619 C16.996862,21.047619 21.047619,16.996862 21.047619,12 C21.047619,7.00313798 16.996862,2.95238095 12,2.95238095 Z M13,6 L12.999,10.999 L18,11 L18,13 L12.999,12.999 L13,18 L11,18 L10.999,12.999 L6,13 L6,11 L10.999,10.999 L11,6 L13,6 Z" id="Combined-Shape"></path>
                </g>
            </g>
        </g>
    </g>
</svg>