<?xml version="1.0" encoding="UTF-8"?>
<svg width="18px" height="18px" viewBox="0 0 18 18" version="1.1" xmlns="http://www.w3.org/2000/svg" xmlns:xlink="http://www.w3.org/1999/xlink">
    <!-- Generator: Sketch 59.1 (86144) - https://sketch.com -->
    <title>Icon/24/Inbox</title>
    <desc>Created with Sketch.</desc>
    <g id="Web" stroke="none" stroke-width="1" fill="none" fill-rule="evenodd">
        <g id="01-" transform="translate(-38.000000, -102.000000)">
            <g id="Group-9" transform="translate(-0.000926, 0.000000)">
                <g id="Group-4" transform="translate(30.000926, 99.000000)">
                    <g id="Icon/24/Inbox-Copy" transform="translate(8.000000, 3.000000)">
                        <path d="M0.00381936643,2 C0.00381936643,0.8954305 0.899249867,2.88466602e-14 2.00381937,2.8643754e-14 L16.0038194,2.8643754e-14 C17.1083889,2.84408479e-14 18.0038194,0.8954305 18.0038194,2 C18.0038194,3.1045695 17.1083889,4 16.0038194,4 L2.00381937,4 C0.899249867,4 0.00381936643,3.1045695 0.00381936643,2 Z" id="Fill-7" fill="#E76A7D"></path>
                        <path d="M0.00381936643,9 C0.00381936643,7.8954305 0.899249867,7 2.00381937,7 L16.0038194,7 C17.1083889,7 18.0038194,7.8954305 18.0038194,9 C18.0038194,10.1045695 17.1083889,11 16.0038194,11 L2.00381937,11 C0.899249867,11 0.00381936643,10.1045695 0.00381936643,9 Z" id="Fill-9" fill="#53D0BA"></path>
                        <path d="M0.00381936643,16 C0.00381936643,14.8954305 0.899249867,14 2.00381937,14 L9.00381937,14 C10.1083889,14 11.0038194,14.8954305 11.0038194,16 C11.0038194,17.1045695 10.1083889,18 9.00381937,18 L2.00381937,18 C0.899249867,18 0.00381936643,17.1045695 0.00381936643,16 Z" id="Fill-11" fill="#FB9082"></path>
                    </g>
                </g>
            </g>
        </g>
    </g>
</svg>