<?xml version="1.0" encoding="UTF-8"?>
<svg width="20px" height="20px" viewBox="0 0 20 20" version="1.1" xmlns="http://www.w3.org/2000/svg" xmlns:xlink="http://www.w3.org/1999/xlink">
    <!-- Generator: sketchtool 59.1 (101010) - https://sketch.com -->
    <title>19951974-6684-4764-95CD-82EC12AA78BD@1,5x</title>
    <desc>Created with sketchtool.</desc>
    <g id="Web" stroke="none" stroke-width="1" fill="none" fill-rule="evenodd">
        <g id="01_1-Hide-scroll" transform="translate(-34.000000, -101.000000)" fill="#FB9082">
            <g id="Icon/24/Inbox-Icon/24/New-inbox" transform="translate(32.000000, 99.000000)">
                <path d="M20,18.586 C20,19.138 19.552,20 19,20 L5,20 C4.448,20 4,19.138 4,18.586 L4,12.116 C4,11.745 4.391,11.503 4.724,11.669 C8.9,13.757 7.617,13.116 11.119,14.867 C11.674,15.145 12.328,15.149 12.886,14.877 C16.357,13.193 14.898,13.897 19.284,11.791 C19.615,11.631 20,11.873 20,12.242 L20,18.586 Z M19.106,9.518 L12.447,12.848 C12.166,12.988 11.834,12.988 11.553,12.848 L4.894,9.518 C3.565,8.854 2,9.821 2,11.307 L2,19.586 C2,20.691 2.895,22 4,22 L20,22 C21.105,22 22,20.691 22,19.586 L22,11.307 C22,9.821 20.435,8.854 19.106,9.518 L19.106,9.518 Z M6,4.586 C6,4.034 6.448,4 7,4 L17,4 C17.552,4 18,4.034 18,4.586 L18,5.835 L12.447,8.612 C12.166,8.752 11.834,8.752 11.553,8.612 L6,5.835 L6,4.586 Z M4.276,7.209 L11.106,10.624 C11.669,10.906 12.331,10.906 12.894,10.624 L19.724,7.209 C19.893,7.125 20,6.952 20,6.762 L20,3.586 C20,2.481 19.105,2 18,2 L6,2 C4.895,2 4,2.481 4,3.586 L4,6.762 C4,6.952 4.107,7.125 4.276,7.209 L4.276,7.209 Z" id="email-[#1564]"></path>
            </g>
        </g>
    </g>
</svg>