<?xml version="1.0" encoding="UTF-8"?>
<svg width="22px" height="24px" viewBox="0 0 22 24" version="1.1" xmlns="http://www.w3.org/2000/svg" xmlns:xlink="http://www.w3.org/1999/xlink">
    <!-- Generator: sketchtool 59.1 (101010) - https://sketch.com -->
    <title>1B58C280-EC0E-4826-A001-D373CA4FFD23@1,5x</title>
    <desc>Created with sketchtool.</desc>
    <defs>
        <polygon id="path-1" points="0.132978336 0.230608977 16.7499418 0.230608977 16.7499418 7.3744856 0.132978336 7.3744856"></polygon>
    </defs>
    <g id="Web" stroke="none" stroke-width="1" fill="none" fill-rule="evenodd">
        <g id="01-" transform="translate(-211.000000, -103.000000)">
            <g id="Group-4" transform="translate(30.000000, 103.000000)">
                <g id="Icon/24/settings" transform="translate(180.000000, 0.000000)">
                    <path d="M3.57679563,16.7778432 C2.99589667,16.8830873 2.3902727,16.6078954 2.1174641,16.0698617 C1.68297057,15.2139478 1.36960183,14.3003107 1.18624778,13.35553 C0.288646379,8.73338013 2.69891868,4.03793528 7.04774331,1.93734859 C7.7144853,1.61651512 8.52429901,1.87667214 8.8573922,2.5207554 C9.19048538,3.16457018 8.92017707,3.94772603 8.25371289,4.26963342 C4.97723162,5.85232239 3.16119312,9.3906189 3.83765843,12.874414 C3.97628521,13.588302 4.2127008,14.2772214 4.53968219,14.9218417 C4.86777481,15.5683412 4.59135469,16.3493493 3.92266804,16.666424 C3.81015533,16.719583 3.6940311,16.7563648 3.57679563,16.7778432" id="Fill-1" fill="#E76A7D"></path>
                    <g id="Group-5" transform="translate(5.000000, 15.800001)">
                        <mask id="mask-2" fill="white">
                            <use xlink:href="#path-1"></use>
                        </mask>
                        <g id="Clip-4"></g>
                        <path d="M9.24939534,7.19626008 C6.20747129,7.74960988 3.06796429,7.00083621 0.63572978,5.14246584 C0.0632794137,4.70500082 -0.0348471686,3.90065514 0.416372019,3.34625185 C0.867863025,2.79132181 1.69772578,2.696507 2.27017615,3.13370864 C4.10359387,4.53512428 6.47004823,5.09927243 8.76256789,4.68235062 C11.0928704,4.25884444 13.1054167,2.87086091 14.2842947,0.874482305 C14.6460855,0.261873251 15.4525719,0.0488032922 16.085366,0.399618107 C16.7178883,0.750432922 16.9375179,1.53160165 16.5754553,2.14473745 C15.0116818,4.7929679 12.3416059,6.63395556 9.24939534,7.19626008" id="Fill-3" fill="#53D0BA" mask="url(#mask-2)"></path>
                    </g>
                    <path d="M21.8537269,13.7768299 C21.7402619,13.7977193 21.6225421,13.804961 21.5019856,13.7966052 C20.7431888,13.7442423 20.1713256,13.0977827 20.2246541,12.3527249 C20.275146,11.6502816 20.2325966,10.9392039 20.0989917,10.2392674 C19.3818933,6.48779665 16.1748069,3.71757409 12.2996958,3.50283032 C11.5403317,3.46077285 10.9593913,2.82211204 11.0022243,2.07649715 C11.0450573,1.33060372 11.6952114,0.75962481 12.4551428,0.802239334 C17.5985082,1.08717174 21.8551452,4.76288329 22.8065486,9.74042675 C22.9835539,10.6670837 23.0394354,11.6098953 22.9727748,12.5424013 C22.9279561,13.169364 22.4545237,13.6662549 21.8537269,13.7768299" id="Fill-6" fill="#FB9082"></path>
                </g>
            </g>
        </g>
    </g>
</svg>