<?xml version="1.0" encoding="UTF-8"?>
<svg width="279px" height="58px" viewBox="0 0 279 58" version="1.1" xmlns="http://www.w3.org/2000/svg" xmlns:xlink="http://www.w3.org/1999/xlink">
    <!-- Generator: sketchtool 59.1 (101010) - https://sketch.com -->
    <title>5AD0605D-C764-4E05-B657-083CCD18CB90@1,5x</title>
    <desc>Created with sketchtool.</desc>
    <defs>
        <polygon id="path-1" points="0.369168855 0.193287609 32.8774391 0.193287609 32.8774391 44.4415592 0.369168855 44.4415592"></polygon>
        <polygon id="path-3" points="0.256342024 0.517142112 32.7646123 0.517142112 32.7646123 47.0971237 0.256342024 47.0971237"></polygon>
    </defs>
    <g id="Web" stroke="none" stroke-width="1" fill="none" fillRule="evenodd">
        <g id="Onboarding-Flow-6_3" transform="translate(-221.000000, -483.000000)">
            <g id="Group-2">
                <g id="Logo-Squad" transform="translate(221.000000, 482.000000)">
                    <g id="Group-9-Copy" transform="translate(0.000000, 3.064935)">
                        <path d="M26.0982192,19.7805033 L8.44509808,51.1122473 C7.24818245,53.2369692 4.57114181,53.9722316 2.49770106,52.7457134 L2.17335512,52.5535886 C0.0999143712,51.3270704 -0.617602135,48.5846308 0.58010458,46.4590982 L18.2332257,15.1273543 C19.4301413,13.0026324 22.1063908,12.26737 24.1798316,13.4946989 L24.5041775,13.686013 C26.5776183,14.9133419 27.2951348,17.6557815 26.0982192,19.7805033" id="Fill-1" fill="#E76A7D"></path>
                        <path d="M28.4375444,6.9762376 L45.9031772,37.9756131 C47.1523046,40.1927494 49.9440529,40.9588166 52.1068865,39.6787954 C54.268929,38.3995847 55.018089,35.5387898 53.7689616,33.3224642 L36.3025377,2.32308866 C35.0542014,0.106763017 32.2632442,-0.659304187 30.1004106,0.619906445 C27.9367859,1.89911708 27.1892081,4.75991196 28.4375444,6.9762376" id="Fill-4" fill="#53D0BA"></path>
                        <path d="M20.4725559,55.6526334 L55.7780058,55.6526334 C58.172628,55.6526334 60.1321521,53.6446457 60.1321521,51.1916095 L60.1321521,50.8073599 C60.1321521,48.353513 58.172628,46.3463359 55.7780058,46.3463359 L20.4725559,46.3463359 C18.0779337,46.3463359 16.1184096,48.353513 16.1184096,50.8073599 L16.1184096,51.1916095 C16.1184096,53.6446457 18.0779337,55.6526334 20.4725559,55.6526334" id="Fill-6" fill="#FB9082"></path>
                    </g>
                    <g id="Group-13" transform="translate(81.970350, 0.000000)">
                        <path d="M0,37.0079685 L5.49039171,37.0079685 C5.55891454,39.7775126 7.93085863,42.0625883 11.7951509,42.0625883 C15.7951711,42.0625883 18.1671151,40.192675 18.1671151,37.5617428 C18.1671151,35.139401 16.336765,33.8932408 13.8284341,33.3394665 L9.49041187,32.3005511 C4.20295316,30.847146 1.15236951,28.2168866 1.15236951,23.0243279 C1.15236951,17.6931575 5.62611962,13.6088202 11.9987428,13.6088202 C17.3540654,13.6088202 22.9123211,16.5163031 22.9123211,23.0243279 L17.2183375,23.0243279 C17.1504736,20.5320074 14.6428015,18.8700118 12.1338118,18.8700118 C9.08322814,18.8700118 7.04994495,20.7392522 7.04994495,23.2315727 C7.04994495,25.4466697 9.08322814,26.623524 11.1171702,27.1086653 L15.7951711,28.2855196 C22.3700683,29.9475152 24.0646906,33.9625467 24.0646906,37.6317215 C24.0646906,43.6546051 18.370707,47.3231071 11.7951509,47.3231071 C6.10116731,47.3231071 0.270796951,43.6546051 0,37.0079685" id="Fill-1" fill="#FFFFFF"></path>
                        <g id="Group-5" transform="translate(28.576818, 13.608820)">
                            <mask id="mask-2" fill="white">
                                <use xlink:href="#path-1"></use>
                            </mask>
                            <g id="Clip-4"></g>
                            <path d="M27.0700046,16.9139266 C27.0700046,10.0891623 22.0631924,5.78960726 16.4568862,5.78960726 C10.7824558,5.78960726 6.24278174,10.5674066 6.24278174,16.9139266 C6.24278174,23.3287672 10.7824558,27.8326208 16.4568862,27.8326208 C21.5960542,27.8326208 27.0700046,23.8063482 27.0700046,16.9139266 L27.0700046,16.9139266 Z M32.8774391,0.875830364 L32.8774391,44.4418247 L27.0700042,44.4418247 L27.0700042,27.7643004 C25.0009717,31.5186172 20.5955999,33.4282776 15.9222724,33.4282776 C7.37753799,33.4282776 0.369168855,26.9457797 0.369168855,16.8449429 C0.369168855,6.81309003 7.44501349,0.193287609 15.9890991,0.193287609 C20.4612977,0.193287609 25.0009717,2.24091587 27.0700042,5.92624877 L27.0700042,0.875830364 L32.8774391,0.875830364 Z" id="Fill-3" fill="#FFFFFF" mask="url(#mask-2)"></path>
                        </g>
                        <path d="M97.762805,14.375054 L97.762805,46.6329395 L91.8290294,46.6329395 L91.8290294,41.5902951 C89.9191638,45.5963474 84.8034285,47.3231057 81.2574822,47.3231057 C73.276617,47.3231057 68.3663862,42.0743513 68.4346667,33.0249832 L68.4346667,14.375054 L74.3684423,14.375054 L74.3684423,32.6805715 C74.3684423,38.0676276 77.5743119,41.3835137 82.007242,41.3835137 C86.440835,41.3835137 91.7607489,38.8276161 91.8290294,31.8507608 L91.8290294,14.375054 L97.762805,14.375054 Z" id="Fill-6" fill="#FFFFFF"></path>
                        <path d="M130.956752,30.362677 C130.956752,23.3695113 125.384363,19.2851743 120.153396,19.2851743 C114.378267,19.2851743 109.757503,23.8546525 109.757503,30.362677 C109.757503,36.8007226 114.378267,41.6467516 120.153396,41.6467516 C125.860505,41.6467516 130.956752,37.2851909 130.956752,30.362677 L130.956752,30.362677 Z M136.867922,14.3012062 L136.867922,46.631394 L130.956752,46.631394 L130.956752,41.5081412 C128.850761,45.2466219 124.229337,47.3231071 119.677914,47.3231071 C110.980549,47.3231071 103.778973,40.6085104 103.778973,30.4319836 C103.778973,20.185478 110.912529,13.6088202 119.609233,13.6088202 C124.366038,13.6088202 128.850761,15.5466936 130.956752,19.3551531 L130.956752,14.3012062 L136.867922,14.3012062 Z" id="Fill-8" fill="#FFFFFF"></path>
                        <g id="Group-12" transform="translate(142.884098, 0.582846)">
                            <mask id="mask-4" fill="white">
                                <use xlink:href="#path-3"></use>
                            </mask>
                            <g id="Clip-11"></g>
                            <path d="M26.9578265,29.9907133 C26.9578265,22.9373563 21.4838762,18.8178647 16.3440593,18.8178647 C10.6702777,18.8178647 6.13060364,23.4266732 6.13060364,29.9907133 C6.13060364,36.4841724 10.6702777,41.3719119 16.3440593,41.3719119 C21.9510143,41.3719119 26.9578265,36.9728106 26.9578265,29.9907133 L26.9578265,29.9907133 Z M32.7646123,0.517006404 L32.7646123,46.3994568 L26.9578262,46.3994568 L26.9578262,41.2321076 C24.8887937,45.0027659 20.3491196,47.0971236 15.8769211,47.0971236 C7.33218666,47.0971236 0.256342024,40.3247336 0.256342024,30.0606163 C0.256342024,19.7259179 7.26535996,13.092654 15.8100944,13.092654 C20.482773,13.092654 24.8887937,15.0472069 26.9578262,18.8884462 L26.9578262,0.517006404 L32.7646123,0.517006404 Z" id="Fill-10" fill="#FFFFFF" mask="url(#mask-4)"></path>
                        </g>
                    </g>
                    <path d="M269.208303,2.38737193 L266.751748,2.38737193 L266.751748,9.19480533 L265.099357,9.19480533 L265.099357,2.38737193 L262.67585,2.38737193 L262.67585,1.02364042 L269.208303,1.02364042 L269.208303,2.38737193 Z M272.30929,1.02364042 L274.369271,6.9499798 L276.418236,1.02364042 L278.588377,1.02364042 L278.588377,9.19480533 L276.930478,9.19480533 L276.930478,6.96120393 L277.095717,3.1057161 L274.931084,9.19480533 L273.796442,9.19480533 L271.637318,3.11132816 L271.802557,6.96120393 L271.802557,9.19480533 L270.150166,9.19480533 L270.150166,1.02364042 L272.30929,1.02364042 Z" id="TM" fill="#FFFFFF" fillRule="nonzero"></path>
                </g>
            </g>
        </g>
    </g>
</svg>
