<?xml version="1.0" encoding="UTF-8"?>
<svg width="186px" height="39px" viewBox="0 0 186 39" version="1.1" xmlns="http://www.w3.org/2000/svg" xmlns:xlink="http://www.w3.org/1999/xlink">
    <!-- Generator: sketchtool 59.1 (101010) - https://sketch.com -->
    <title>E699D449-60E3-4B88-8EC8-3115637CD2E7@1,5x</title>
    <desc>Created with sketchtool.</desc>
    <defs>
        <polygon id="path-1" points="0.246112573 0.127766389 21.9182927 0.127766389 21.9182927 29.3766234 0.246112573 29.3766234"></polygon>
        <polygon id="path-3" points="0.170894688 0.341839703 21.8430748 0.341839703 21.8430748 31.1319967 0.170894688 31.1319967"></polygon>
    </defs>
    <g id="Styles" stroke="none" stroke-width="1" fill="none" fill-rule="evenodd">
        <g transform="translate(-870.000000, -606.000000)" id="Logo-Squad">
            <g transform="translate(870.000000, 606.000000)">
                <g id="Group-9-Copy" transform="translate(0.000000, 2.025974)">
                    <path d="M17.3988119,13.0752481 L5.6300651,33.7860612 C4.83212139,35.1905383 3.04742772,35.6765592 1.66513396,34.8658099 L1.44890334,34.7388121 C0.0666095775,33.9280628 -0.411734736,32.1152639 0.386736367,30.7102509 L12.1554832,9.99943778 C12.9534269,8.59496064 14.7375932,8.10893975 16.1198869,8.9202249 L16.3361175,9.04668679 C17.7184113,9.85797194 18.1967556,11.6707709 17.3988119,13.0752481" id="Fill-1" fill="#E76A7D"></path>
                    <path d="M18.958362,4.61141124 L30.602117,25.1025236 C31.4348686,26.5680883 33.296034,27.0744717 34.7379231,26.2283559 C36.1792847,25.382776 36.6787247,23.4917421 35.8459731,22.0267133 L24.2016908,1.53560096 C23.3694666,0.0705721626 21.5088285,-0.435811237 20.0669395,0.409768662 C18.6245231,1.25534856 18.1261379,3.14638244 18.958362,4.61141124" id="Fill-4" fill="#53D0BA"></path>
                    <path d="M13.648371,36.7873339 L37.1853372,36.7873339 C38.781752,36.7873339 40.0881014,35.46002 40.0881014,33.8385214 L40.0881014,33.5845259 C40.0881014,31.9624915 38.781752,30.6357134 37.1853372,30.6357134 L13.648371,30.6357134 C12.0519562,30.6357134 10.7456068,31.9624915 10.7456068,33.5845259 L10.7456068,33.8385214 C10.7456068,35.46002 12.0519562,36.7873339 13.648371,36.7873339" id="Fill-6" fill="#FB9082"></path>
                </g>
                <g id="Group-13" transform="translate(54.646900, 0.000000)">
                    <path d="M0,24.4628938 L3.66026105,24.4628938 C3.70594294,26.2936093 5.28723896,27.8040831 7.86343374,27.8040831 C10.5301138,27.8040831 12.1114098,26.5680387 12.1114098,24.828948 C12.1114098,23.2277391 10.8911764,22.4040061 9.21895583,22.0379519 L6.3269411,21.3512112 C2.80196871,20.3904859 0.768246319,18.6518399 0.768246319,15.2194707 C0.768246319,11.6954768 3.75074632,8.99566074 7.99916165,8.99566074 C11.5693767,8.99566074 15.2748804,10.9175562 15.2748804,15.2194707 L11.4788914,15.2194707 C11.4336488,13.5720047 9.76186747,12.4733975 8.08920767,12.4733975 C6.05548528,12.4733975 4.69996319,13.708997 4.69996319,15.3564631 C4.69996319,16.8206796 6.05548528,17.5986003 7.41144663,17.9192868 L10.5301138,18.6972075 C14.9133785,19.7958147 16.0431267,22.4498184 16.0431267,24.8752051 C16.0431267,28.8564331 12.2471377,31.281375 7.86343374,31.281375 C4.06744478,31.281375 0.180531296,28.8564331 0,24.4628938" id="Fill-1" fill="#FFFFFF"></path>
                    <g id="Group-5" transform="translate(19.051213, 8.995661)">
                        <mask id="mask-2" fill="white">
                            <use xlink:href="#path-1"></use>
                        </mask>
                        <g id="Clip-4"></g>
                        <path d="M18.0466694,11.1803921 C18.0466694,6.66910735 14.7087947,3.82702865 10.9712573,3.82702865 C7.18830379,3.82702865 4.16185445,6.98523489 4.16185445,11.1803921 C4.16185445,15.4207104 7.18830379,18.3978338 10.9712573,18.3978338 C14.3973693,18.3978338 18.0466694,15.7363995 18.0466694,11.1803921 L18.0466694,11.1803921 Z M21.9182927,0.578938709 L21.9182927,29.3767988 L18.0466694,29.3767988 L18.0466694,18.3526728 C16.6673144,20.8343398 13.7303999,22.0966576 10.6148483,22.0966576 C4.91835865,22.0966576 0.246112573,17.8116167 0.246112573,11.1347926 C0.246112573,4.5035679 4.96334232,0.127766389 10.6593994,0.127766389 C13.6408651,0.127766389 16.6673144,1.48128335 18.0466694,3.9173508 L18.0466694,0.578938709 L21.9182927,0.578938709 Z" id="Fill-3" fill="#FFFFFF" mask="url(#mask-2)"></path>
                    </g>
                    <path d="M65.1752022,9.50215424 L65.1752022,30.8251635 L61.2193518,30.8251635 L61.2193518,27.49189 C59.946108,30.1399585 56.5356179,31.281375 54.1716537,31.281375 C48.851077,31.281375 45.5775898,27.8118594 45.6231102,21.8300737 L45.6231102,9.50215424 L49.5789605,9.50215424 L49.5789605,21.6024117 C49.5789605,25.1633471 51.7162069,27.3552041 54.6714936,27.3552041 C57.6272222,27.3552041 61.1738315,25.6657124 61.2193518,21.0538927 L61.2193518,9.50215424 L65.1752022,9.50215424 Z" id="Fill-6" fill="#FFFFFF"></path>
                    <path d="M87.3045029,20.0702441 C87.3045029,15.447643 83.5895769,12.7478269 80.1022661,12.7478269 C76.2521799,12.7478269 73.1716706,15.7683296 73.1716706,20.0702441 C73.1716706,24.3259015 76.2521799,27.5292089 80.1022661,27.5292089 C83.9070054,27.5292089 87.3045029,24.6461433 87.3045029,20.0702441 L87.3045029,20.0702441 Z M91.245283,9.45333961 L91.245283,30.8241409 L87.3045029,30.8241409 L87.3045029,27.4375841 C85.9005092,29.9087832 82.8195597,31.281375 79.7852779,31.281375 C73.9870348,31.281375 69.1859838,26.8429129 69.1859838,20.1160565 C69.1859838,13.3429429 73.9416878,8.99566074 79.7394907,8.99566074 C82.9106938,8.99566074 85.9005092,10.2766278 87.3045029,12.794084 L87.3045029,9.45333961 L91.245283,9.45333961 Z" id="Fill-8" fill="#FFFFFF"></path>
                    <g id="Group-12" transform="translate(95.256065, 0.385271)">
                        <mask id="mask-4" fill="white">
                            <use xlink:href="#path-3"></use>
                        </mask>
                        <g id="Clip-11"></g>
                        <path d="M17.9718841,19.82437 C17.9718841,15.1619815 14.3225839,12.4389277 10.8960394,12.4389277 C7.11351844,12.4389277 4.0870691,15.4854283 4.0870691,19.82437 C4.0870691,24.1166565 7.11351844,27.3475351 10.8960394,27.3475351 C14.6340093,27.3475351 17.9718841,24.4396546 17.9718841,19.82437 L17.9718841,19.82437 Z M21.8430748,0.341749981 L21.8430748,30.6708272 L17.9718841,30.6708272 L17.9718841,27.2551218 C16.5925291,29.7475908 13.5660797,31.1319967 10.584614,31.1319967 C4.88812443,31.1319967 0.170894688,26.6553322 0.170894688,19.8705767 C0.170894688,13.0391659 4.8435733,8.65446612 10.5400629,8.65446612 C13.655182,8.65446612 16.5925291,9.9464587 17.9718841,12.485583 L17.9718841,0.341749981 L21.8430748,0.341749981 Z" id="Fill-10" fill="#FFFFFF" mask="url(#mask-4)"></path>
                    </g>
                </g>
                <path d="M179.472198,1.57809329 L177.834495,1.57809329 L177.834495,6.07792208 L176.732901,6.07792208 L176.732901,1.57809329 L175.11723,1.57809329 L175.11723,0.676643669 L179.472198,0.676643669 L179.472198,1.57809329 Z M181.539523,0.676643669 L182.912844,4.59405438 L184.27882,0.676643669 L185.725581,0.676643669 L185.725581,6.07792208 L184.620315,6.07792208 L184.620315,4.60147372 L184.730474,2.05293096 L183.287386,6.07792208 L182.530958,6.07792208 L181.091542,2.05664062 L181.201701,4.60147372 L181.201701,6.07792208 L180.100107,6.07792208 L180.100107,0.676643669 L181.539523,0.676643669 Z" id="TM" fill="#FFFFFF" fill-rule="nonzero"></path>
            </g>
        </g>
    </g>
</svg>