<?xml version="1.0" encoding="UTF-8"?>
<svg width="24px" height="20px" viewBox="0 0 24 20" version="1.1" xmlns="http://www.w3.org/2000/svg" xmlns:xlink="http://www.w3.org/1999/xlink">
    <!-- Generator: sketchtool 59.1 (101010) - https://sketch.com -->
    <title>C546FA57-94D5-4E1B-8B05-2D357B40EFA8@1,5x</title>
    <desc>Created with sketchtool.</desc>
    <g id="Web" stroke="none" stroke-width="1" fill="none" fill-rule="evenodd">
        <g id="01-" transform="translate(-122.000000, -105.000000)">
            <g id="Group-4" transform="translate(30.000000, 103.000000)">
                <g id="Icons/24/tasks" transform="translate(92.000000, 0.000000)">
                    <path d="M12,10 C9.79067033,10 8,8.20776166 8,6 C8,3.79067033 9.79067033,2 12,2 C14.2093297,2 16,3.79067033 16,6 C16,8.20776166 14.2093297,10 12,10" id="Fill-1" fill="#FB9082"></path>
                    <path d="M19.9992161,22 C17.7918871,22 16,20.2093297 16,18 C16,15.7906703 17.7918871,14 19.9992161,14 C22.2081129,14 24,15.7906703 24,18 C24,20.2093297 22.2081129,22 19.9992161,22" id="Fill-3" fill="#E76A7D"></path>
                    <path d="M4,22 C1.79067033,22 0,20.2093297 0,18 C0,15.7906703 1.79067033,14 4,14 C6.20932967,14 8,15.7906703 8,18 C8,20.2093297 6.20932967,22 4,22" id="Fill-5" fill="#53D0BA"></path>
                </g>
            </g>
        </g>
    </g>
</svg>