<?xml version="1.0" encoding="UTF-8"?>
<svg width="18px" height="18px" viewBox="0 0 18 18" version="1.1" xmlns="http://www.w3.org/2000/svg" xmlns:xlink="http://www.w3.org/1999/xlink">
    <!-- Generator: sketchtool 59.1 (101010) - https://sketch.com -->
    <title>7F2A370C-0A6E-4D41-8C15-04A10EFB5D7F@1,5x</title>
    <desc>Created with sketchtool.</desc>
    <g id="Web" stroke="none" stroke-width="1" fill="none" fill-rule="evenodd">
        <g id="01_1-Hide-scroll" transform="translate(-35.000000, -171.000000)" fill="#E76A7D">
            <g id="Icons/24/tasks-Icon/24/New-inbox-Copy" transform="translate(32.000000, 168.000000)">
                <path d="M5,17 C6.102,17 7,17.898 7,19 C7,20.102 6.102,21 5,21 C3.898,21 3,20.102 3,19 C3,17.898 3.898,17 5,17 Z M20,18 C20.5522847,18 21,18.4477153 21,19 C21,19.5522847 20.5522847,20 20,20 L10,20 C9.44771525,20 9,19.5522847 9,19 C9,18.4477153 9.44771525,18 10,18 L20,18 Z M5,10 C3.898,10 3,10.898 3,12 C3,13.102 3.898,14 5,14 C6.102,14 7,13.102 7,12 C7,10.898 6.102,10 5,10 L5,10 Z M20,11 C20.5522847,11 21,11.4477153 21,12 C21,12.5522847 20.5522847,13 20,13 L10,13 C9.44771525,13 9,12.5522847 9,12 C9,11.4477153 9.44771525,11 10,11 L20,11 Z M5,3 C6.102,3 7,3.898 7,5 C7,6.102 6.102,7 5,7 C3.898,7 3,6.102 3,5 C3,3.898 3.898,3 5,3 Z M20,4 C20.5522847,4 21,4.44771525 21,5 C21,5.55228475 20.5522847,6 20,6 L10,6 C9.44771525,6 9,5.55228475 9,5 C9,4.44771525 9.44771525,4 10,4 L20,4 Z" id="list-[#1540]"></path>
            </g>
        </g>
    </g>
</svg>