<?xml version="1.0" encoding="UTF-8"?>
<svg width="24px" height="16px" viewBox="0 0 24 16" version="1.1" xmlns="http://www.w3.org/2000/svg" xmlns:xlink="http://www.w3.org/1999/xlink">
    <!-- Generator: sketchtool 59.1 (101010) - https://sketch.com -->
    <title>E0951774-9206-4E0D-AC24-98B069D366EF@1,5x</title>
    <desc>Created with sketchtool.</desc>
    <g id="Web" stroke="none" stroke-width="1" fill="none" fill-rule="evenodd">
        <g id="01_1-Hide-scroll" transform="translate(-32.000000, -240.000000)" fill="#53D0BA">
            <g id="Icon/24/settings-Icon/24/teams" transform="translate(32.000000, 237.000000)">
                <path d="M7.5,12 C11.68625,12 15,15.0928333 15,19 L12.8571429,19 C12.8571429,15.93925 10.779375,14 7.5,14 C4.22,14 2.14285714,15.93925 2.14285714,19 L-4.54747351e-13,19 C-4.54747351e-13,15.0928333 3.313125,12 7.5,12 Z M6.99967307,3 C9.20580302,3 11,4.79455749 11,6.99967312 C11,9.20544251 9.20580302,11 6.99967307,11 C4.79419698,11 3,9.20544251 3,6.99967312 C3,4.79455749 4.79419698,3 6.99967307,3 Z M6.9997131,5 C5.89685841,5 5,5.89672978 5,6.99942628 C5,8.10212278 5.89685841,9 6.9997131,9 C8.10256778,9 9,8.10212278 9,6.99942628 C9,5.89672978 8.10256778,5 6.9997131,5 Z" id="Combined-Shape"></path>
                <path d="M16.5,12 C20.68625,12 24,15.0928333 24,19 L21.8571429,19 C21.8571429,15.93925 19.779375,14 16.5,14 C13.22,14 11.1428571,15.93925 11.1428571,19 L9,19 C9,15.0928333 12.313125,12 16.5,12 Z M16.9996731,3 C19.205803,3 21,4.79455749 21,6.99967312 C21,9.20544251 19.205803,11 16.9996731,11 C14.794197,11 13,9.20544251 13,6.99967312 C13,4.79455749 14.794197,3 16.9996731,3 Z M16.9997131,5 C15.8968584,5 15,5.89672978 15,6.99942628 C15,8.10212278 15.8968584,9 16.9997131,9 C18.1025678,9 19,8.10212278 19,6.99942628 C19,5.89672978 18.1025678,5 16.9997131,5 Z" id="Combined-Shape-Copy"></path>
            </g>
        </g>
    </g>
</svg>