<?xml version="1.0" encoding="UTF-8"?>
<svg width="20px" height="16px" viewBox="0 0 20 16" version="1.1" xmlns="http://www.w3.org/2000/svg" xmlns:xlink="http://www.w3.org/1999/xlink">
    <!-- Generator: sketchtool 59.1 (101010) - https://sketch.com -->
    <title>8320E823-D68F-403B-ABB8-D533C56B987C@1,5x</title>
    <desc>Created with sketchtool.</desc>
    <g id="Styles" stroke="none" stroke-width="1" fill="none" fill-rule="evenodd">
        <g transform="translate(-185.000000, -809.000000)" fill="#495570" id="Icon-/-Hide">
            <g transform="translate(185.000000, 807.000000)">
                <path d="M16.2928932,2.29289322 L17.7071068,3.70710678 L15.8025804,5.61173186 C17.1913274,6.69106128 18.5904672,8.15381732 20,10 C16.6065803,14.444645 13.2733974,16.6669675 10.0004512,16.6669675 C8.64263145,16.6669675 7.27439259,16.2844832 5.89573461,15.5195146 L3.70710678,17.7071068 L2.29289322,16.2928932 L4.1979668,14.3882318 C2.8090891,13.3089059 1.40976683,11.846162 0,10 C3.39402127,5.55535503 6.727505,3.33303255 10.0004512,3.33303255 C11.3582709,3.33303255 12.726458,3.71551682 14.1050124,4.48048537 L16.2928932,2.29289322 Z M14.3761321,7.03665715 L12.7079575,8.70727122 C12.8951705,9.09873251 13,9.53712413 13,10 C13,11.6568542 11.6568542,13 10,13 C9.53712413,13 9.09873251,12.8951705 8.70727122,12.7079575 L7.38024681,14.0346264 C8.28418752,14.4590382 9.15833217,14.6669675 10.0004512,14.6669675 C12.1871539,14.6669675 14.589589,13.2649482 17.1687457,10.3111111 L17.4361838,10 L17.1687457,9.68888889 C16.2129426,8.59423398 15.2814096,7.71269805 14.3761321,7.03665715 Z M10.0004512,5.33303255 C7.73831866,5.33303255 5.245093,6.83342488 2.56399146,10 C3.61382463,11.239929 4.63485166,12.2243899 5.6244779,12.9633363 L7.29251502,11.2937164 C7.10500593,10.9020049 7,10.4632652 7,10 C7,8.34314575 8.34314575,7 10,7 C10.4628759,7 10.9012675,7.10482952 11.2927288,7.29204249 L12.6205337,5.96536967 C11.7166639,5.54095977 10.8425604,5.33303255 10.0004512,5.33303255 Z" id="Combined-Shape"></path>
            </g>
        </g>
    </g>
</svg>