<?xml version="1.0" encoding="UTF-8"?>
<svg width="61px" height="56px" viewBox="0 0 61 56" version="1.1" xmlns="http://www.w3.org/2000/svg" xmlns:xlink="http://www.w3.org/1999/xlink">
    <!-- Generator: sketchtool 59.1 (101010) - https://sketch.com -->
    <title>606A515D-44ED-40EA-A98C-3DBD09087CAD@1,5x</title>
    <desc>Created with sketchtool.</desc>
    <g id="Web" stroke="none" stroke-width="1" fill="none" fill-rule="evenodd">
        <g id="Onboarding-Flow-6_3" transform="translate(-221.000000, -485.000000)">
            <g id="Group-2">
                <g id="Logo-Squad" transform="translate(221.000000, 482.000000)">
                    <g id="Group-9-Copy" transform="translate(0.000000, 3.064935)">
                        <path d="M26.0982192,19.7805033 L8.44509808,51.1122473 C7.24818245,53.2369692 4.57114181,53.9722316 2.49770106,52.7457134 L2.17335512,52.5535886 C0.0999143712,51.3270704 -0.617602135,48.5846308 0.58010458,46.4590982 L18.2332257,15.1273543 C19.4301413,13.0026324 22.1063908,12.26737 24.1798316,13.4946989 L24.5041775,13.686013 C26.5776183,14.9133419 27.2951348,17.6557815 26.0982192,19.7805033" id="Fill-1" fill="#E76A7D"></path>
                        <path d="M28.4375444,6.9762376 L45.9031772,37.9756131 C47.1523046,40.1927494 49.9440529,40.9588166 52.1068865,39.6787954 C54.268929,38.3995847 55.018089,35.5387898 53.7689616,33.3224642 L36.3025377,2.32308866 C35.0542014,0.106763017 32.2632442,-0.659304187 30.1004106,0.619906445 C27.9367859,1.89911708 27.1892081,4.75991196 28.4375444,6.9762376" id="Fill-4" fill="#53D0BA"></path>
                        <path d="M20.4725559,55.6526334 L55.7780058,55.6526334 C58.172628,55.6526334 60.1321521,53.6446457 60.1321521,51.1916095 L60.1321521,50.8073599 C60.1321521,48.353513 58.172628,46.3463359 55.7780058,46.3463359 L20.4725559,46.3463359 C18.0779337,46.3463359 16.1184096,48.353513 16.1184096,50.8073599 L16.1184096,51.1916095 C16.1184096,53.6446457 18.0779337,55.6526334 20.4725559,55.6526334" id="Fill-6" fill="#FB9082"></path>
                    </g>
                </g>
            </g>
        </g>
    </g>
</svg>